<mxfile host="app.diagrams.net" modified="2024-06-11T11:39:32.665Z" agent="Mozilla/5.0 (Windows NT 10.0; Win64; x64) AppleWebKit/537.36 (KHTML, like Gecko) Chrome/125.0.0.0 Safari/537.36" etag="A5b7-zN6DU0iA_6D54_L" version="24.5.2" type="device">
  <diagram name="Page-1" id="UvGsvI7WDLGOxSDZg6XE">
    <mxGraphModel dx="1912" dy="2129" grid="1" gridSize="10" guides="1" tooltips="1" connect="1" arrows="1" fold="1" page="1" pageScale="1" pageWidth="850" pageHeight="1100" math="0" shadow="0">
      <root>
        <mxCell id="0" />
        <mxCell id="1" parent="0" />
        <mxCell id="ry9LyBkneQpmExAJehDU-2" value="" style="rounded=1;whiteSpace=wrap;html=1;fillColor=#f8cecc;strokeColor=#b85450;" vertex="1" parent="1">
          <mxGeometry x="360" y="-50" width="790" height="4190" as="geometry" />
        </mxCell>
        <mxCell id="ry9LyBkneQpmExAJehDU-124" value="" style="edgeStyle=orthogonalEdgeStyle;rounded=0;orthogonalLoop=1;jettySize=auto;html=1;" edge="1" parent="1" source="ry9LyBkneQpmExAJehDU-4" target="ry9LyBkneQpmExAJehDU-119">
          <mxGeometry relative="1" as="geometry" />
        </mxCell>
        <mxCell id="ry9LyBkneQpmExAJehDU-4" value="Start" style="ellipse;whiteSpace=wrap;html=1;" vertex="1" parent="1">
          <mxGeometry x="494.5" width="93" height="60" as="geometry" />
        </mxCell>
        <mxCell id="ry9LyBkneQpmExAJehDU-7" value="&lt;font style=&quot;font-size: 43px;&quot;&gt;void ConnectionPrint()&lt;/font&gt;" style="text;html=1;align=center;verticalAlign=middle;whiteSpace=wrap;rounded=0;rotation=-90;" vertex="1" parent="1">
          <mxGeometry x="168.5" y="266" width="471" height="80" as="geometry" />
        </mxCell>
        <mxCell id="ry9LyBkneQpmExAJehDU-117" value="End" style="ellipse;whiteSpace=wrap;html=1;" vertex="1" parent="1">
          <mxGeometry x="494.5" y="4070" width="93" height="60" as="geometry" />
        </mxCell>
        <mxCell id="ry9LyBkneQpmExAJehDU-379" style="edgeStyle=orthogonalEdgeStyle;rounded=0;orthogonalLoop=1;jettySize=auto;html=1;entryX=0.5;entryY=0;entryDx=0;entryDy=0;exitX=1;exitY=0.5;exitDx=0;exitDy=0;" edge="1" parent="1" source="ry9LyBkneQpmExAJehDU-119" target="ry9LyBkneQpmExAJehDU-377">
          <mxGeometry relative="1" as="geometry" />
        </mxCell>
        <mxCell id="ry9LyBkneQpmExAJehDU-410" style="edgeStyle=orthogonalEdgeStyle;rounded=0;orthogonalLoop=1;jettySize=auto;html=1;entryX=0.5;entryY=0;entryDx=0;entryDy=0;" edge="1" parent="1" source="ry9LyBkneQpmExAJehDU-119" target="ry9LyBkneQpmExAJehDU-407">
          <mxGeometry relative="1" as="geometry" />
        </mxCell>
        <mxCell id="ry9LyBkneQpmExAJehDU-119" value="if (RaspConnection = RaspberryDisconnected)" style="rhombus;whiteSpace=wrap;html=1;" vertex="1" parent="1">
          <mxGeometry x="452" y="80" width="178" height="160" as="geometry" />
        </mxCell>
        <mxCell id="ry9LyBkneQpmExAJehDU-306" value="Yes" style="text;html=1;strokeColor=none;fillColor=none;align=center;verticalAlign=middle;whiteSpace=wrap;rounded=0;" vertex="1" parent="1">
          <mxGeometry x="634.5" y="128" width="20" height="30" as="geometry" />
        </mxCell>
        <mxCell id="ry9LyBkneQpmExAJehDU-393" value="" style="edgeStyle=orthogonalEdgeStyle;rounded=0;orthogonalLoop=1;jettySize=auto;html=1;entryX=0.5;entryY=0;entryDx=0;entryDy=0;" edge="1" parent="1" source="ry9LyBkneQpmExAJehDU-377" target="ry9LyBkneQpmExAJehDU-380">
          <mxGeometry relative="1" as="geometry" />
        </mxCell>
        <mxCell id="ry9LyBkneQpmExAJehDU-377" value="&lt;p style=&quot;line-height: 120%;&quot;&gt;&lt;/p&gt;&lt;div style=&quot;line-height: 120%; white-space: pre;&quot;&gt;&lt;span style=&quot;background-color: rgb(255, 255, 255);&quot;&gt;&lt;font style=&quot;font-size: 12px;&quot; face=&quot;Helvetica&quot;&gt;PrintToDisplay(&lt;span style=&quot;&quot;&gt;&quot;page0.t5.txt=&lt;/span&gt;&lt;span style=&quot;&quot;&gt;\&quot;&lt;/span&gt;&lt;span style=&quot;&quot;&gt;No&lt;/span&gt;&lt;span style=&quot;&quot;&gt;\&quot;&lt;/span&gt;&lt;span style=&quot;&quot;&gt;&quot;)&lt;/span&gt;&lt;/font&gt;&lt;/span&gt;&lt;/div&gt;&lt;div style=&quot;line-height: 120%; white-space: pre;&quot;&gt;&lt;span style=&quot;background-color: rgb(255, 255, 255);&quot;&gt;(Serial Display/Print_To_Dispaly)&lt;/span&gt;&lt;/div&gt;&lt;p&gt;&lt;/p&gt;" style="shape=process;whiteSpace=wrap;html=1;backgroundOutline=1;" vertex="1" parent="1">
          <mxGeometry x="609" y="240" width="302.5" height="60" as="geometry" />
        </mxCell>
        <mxCell id="ry9LyBkneQpmExAJehDU-394" style="edgeStyle=orthogonalEdgeStyle;rounded=0;orthogonalLoop=1;jettySize=auto;html=1;entryX=0.5;entryY=0;entryDx=0;entryDy=0;" edge="1" parent="1" source="ry9LyBkneQpmExAJehDU-380" target="ry9LyBkneQpmExAJehDU-381">
          <mxGeometry relative="1" as="geometry" />
        </mxCell>
        <mxCell id="ry9LyBkneQpmExAJehDU-380" value="&lt;p style=&quot;line-height: 120%;&quot;&gt;&lt;/p&gt;&lt;div style=&quot;line-height: 120%; white-space: pre;&quot;&gt;&lt;span style=&quot;background-color: rgb(255, 255, 255);&quot;&gt;&lt;font style=&quot;font-size: 12px;&quot; face=&quot;Helvetica&quot;&gt;PrintToDisplay(&lt;span style=&quot;&quot;&gt;&quot;page1.t8.txt=&lt;/span&gt;&lt;span style=&quot;&quot;&gt;\&quot;&lt;/span&gt;&lt;span style=&quot;&quot;&gt;No&lt;/span&gt;&lt;span style=&quot;&quot;&gt;\&quot;&lt;/span&gt;&lt;span style=&quot;&quot;&gt;&quot;)&lt;/span&gt;&lt;/font&gt;&lt;/span&gt;&lt;/div&gt;&lt;div style=&quot;line-height: 120%; white-space: pre;&quot;&gt;&lt;span style=&quot;background-color: rgb(255, 255, 255);&quot;&gt;(Serial Display/Print_To_Dispaly)&lt;/span&gt;&lt;/div&gt;&lt;p&gt;&lt;/p&gt;" style="shape=process;whiteSpace=wrap;html=1;backgroundOutline=1;" vertex="1" parent="1">
          <mxGeometry x="609" y="320" width="302.5" height="60" as="geometry" />
        </mxCell>
        <mxCell id="ry9LyBkneQpmExAJehDU-395" style="edgeStyle=orthogonalEdgeStyle;rounded=0;orthogonalLoop=1;jettySize=auto;html=1;entryX=0.5;entryY=0;entryDx=0;entryDy=0;" edge="1" parent="1" source="ry9LyBkneQpmExAJehDU-381" target="ry9LyBkneQpmExAJehDU-382">
          <mxGeometry relative="1" as="geometry" />
        </mxCell>
        <mxCell id="ry9LyBkneQpmExAJehDU-381" value="&lt;p style=&quot;line-height: 120%;&quot;&gt;&lt;/p&gt;&lt;div style=&quot;line-height: 120%; white-space: pre;&quot;&gt;&lt;span style=&quot;background-color: rgb(255, 255, 255);&quot;&gt;&lt;font style=&quot;font-size: 12px;&quot; face=&quot;Helvetica&quot;&gt;PrintToDisplay(&lt;span style=&quot;&quot;&gt;&quot;page2.t8.txt=&lt;/span&gt;&lt;span style=&quot;&quot;&gt;\&quot;&lt;/span&gt;&lt;span style=&quot;&quot;&gt;No&lt;/span&gt;&lt;span style=&quot;&quot;&gt;\&quot;&lt;/span&gt;&lt;span style=&quot;&quot;&gt;&quot;)&lt;/span&gt;&lt;/font&gt;&lt;/span&gt;&lt;/div&gt;&lt;div style=&quot;line-height: 120%; white-space: pre;&quot;&gt;&lt;span style=&quot;background-color: rgb(255, 255, 255);&quot;&gt;(Serial Display/Print_To_Dispaly)&lt;/span&gt;&lt;/div&gt;&lt;p&gt;&lt;/p&gt;" style="shape=process;whiteSpace=wrap;html=1;backgroundOutline=1;" vertex="1" parent="1">
          <mxGeometry x="609" y="400" width="302.5" height="60" as="geometry" />
        </mxCell>
        <mxCell id="ry9LyBkneQpmExAJehDU-396" style="edgeStyle=orthogonalEdgeStyle;rounded=0;orthogonalLoop=1;jettySize=auto;html=1;entryX=0.5;entryY=0;entryDx=0;entryDy=0;" edge="1" parent="1" source="ry9LyBkneQpmExAJehDU-382" target="ry9LyBkneQpmExAJehDU-383">
          <mxGeometry relative="1" as="geometry" />
        </mxCell>
        <mxCell id="ry9LyBkneQpmExAJehDU-382" value="&lt;p style=&quot;line-height: 120%;&quot;&gt;&lt;/p&gt;&lt;div style=&quot;line-height: 120%; white-space: pre;&quot;&gt;&lt;span style=&quot;background-color: rgb(255, 255, 255);&quot;&gt;&lt;font style=&quot;font-size: 12px;&quot; face=&quot;Helvetica&quot;&gt;PrintToDisplay(&lt;span style=&quot;&quot;&gt;&quot;page3.t5.txt=&lt;/span&gt;&lt;span style=&quot;&quot;&gt;\&quot;&lt;/span&gt;&lt;span style=&quot;&quot;&gt;No&lt;/span&gt;&lt;span style=&quot;&quot;&gt;\&quot;&lt;/span&gt;&lt;span style=&quot;&quot;&gt;&quot;)&lt;/span&gt;&lt;/font&gt;&lt;/span&gt;&lt;/div&gt;&lt;div style=&quot;line-height: 120%; white-space: pre;&quot;&gt;&lt;span style=&quot;background-color: rgb(255, 255, 255);&quot;&gt;(Serial Display/Print_To_Dispaly)&lt;/span&gt;&lt;/div&gt;&lt;p&gt;&lt;/p&gt;" style="shape=process;whiteSpace=wrap;html=1;backgroundOutline=1;" vertex="1" parent="1">
          <mxGeometry x="609" y="480" width="302.5" height="60" as="geometry" />
        </mxCell>
        <mxCell id="ry9LyBkneQpmExAJehDU-397" style="edgeStyle=orthogonalEdgeStyle;rounded=0;orthogonalLoop=1;jettySize=auto;html=1;" edge="1" parent="1" source="ry9LyBkneQpmExAJehDU-383" target="ry9LyBkneQpmExAJehDU-384">
          <mxGeometry relative="1" as="geometry" />
        </mxCell>
        <mxCell id="ry9LyBkneQpmExAJehDU-383" value="&lt;p style=&quot;line-height: 120%;&quot;&gt;&lt;/p&gt;&lt;div style=&quot;line-height: 120%; white-space: pre;&quot;&gt;&lt;span style=&quot;background-color: rgb(255, 255, 255);&quot;&gt;&lt;font style=&quot;font-size: 12px;&quot; face=&quot;Helvetica&quot;&gt;PrintToDisplay(&lt;span style=&quot;&quot;&gt;&quot;page31.t5.txt=&lt;/span&gt;&lt;span style=&quot;&quot;&gt;\&quot;&lt;/span&gt;&lt;span style=&quot;&quot;&gt;No&lt;/span&gt;&lt;span style=&quot;&quot;&gt;\&quot;&lt;/span&gt;&lt;span style=&quot;&quot;&gt;&quot;)&lt;/span&gt;&lt;/font&gt;&lt;/span&gt;&lt;/div&gt;&lt;div style=&quot;line-height: 120%; white-space: pre;&quot;&gt;&lt;span style=&quot;background-color: rgb(255, 255, 255);&quot;&gt;(Serial Display/Print_To_Dispaly)&lt;/span&gt;&lt;/div&gt;&lt;p&gt;&lt;/p&gt;" style="shape=process;whiteSpace=wrap;html=1;backgroundOutline=1;" vertex="1" parent="1">
          <mxGeometry x="609" y="560" width="302.5" height="60" as="geometry" />
        </mxCell>
        <mxCell id="ry9LyBkneQpmExAJehDU-398" style="edgeStyle=orthogonalEdgeStyle;rounded=0;orthogonalLoop=1;jettySize=auto;html=1;entryX=0.5;entryY=0;entryDx=0;entryDy=0;" edge="1" parent="1" source="ry9LyBkneQpmExAJehDU-384" target="ry9LyBkneQpmExAJehDU-385">
          <mxGeometry relative="1" as="geometry" />
        </mxCell>
        <mxCell id="ry9LyBkneQpmExAJehDU-384" value="&lt;p style=&quot;line-height: 120%;&quot;&gt;&lt;/p&gt;&lt;div style=&quot;line-height: 120%; white-space: pre;&quot;&gt;&lt;span style=&quot;background-color: rgb(255, 255, 255);&quot;&gt;&lt;font style=&quot;font-size: 12px;&quot; face=&quot;Helvetica&quot;&gt;PrintToDisplay(&lt;span style=&quot;&quot;&gt;&quot;page32.t5.txt=&lt;/span&gt;&lt;span style=&quot;&quot;&gt;\&quot;&lt;/span&gt;&lt;span style=&quot;&quot;&gt;No&lt;/span&gt;&lt;span style=&quot;&quot;&gt;\&quot;&lt;/span&gt;&lt;span style=&quot;&quot;&gt;&quot;)&lt;/span&gt;&lt;/font&gt;&lt;/span&gt;&lt;/div&gt;&lt;div style=&quot;line-height: 120%; white-space: pre;&quot;&gt;&lt;span style=&quot;background-color: rgb(255, 255, 255);&quot;&gt;(Serial Display/Print_To_Dispaly)&lt;/span&gt;&lt;/div&gt;&lt;p&gt;&lt;/p&gt;" style="shape=process;whiteSpace=wrap;html=1;backgroundOutline=1;" vertex="1" parent="1">
          <mxGeometry x="609" y="640" width="302.5" height="60" as="geometry" />
        </mxCell>
        <mxCell id="ry9LyBkneQpmExAJehDU-399" style="edgeStyle=orthogonalEdgeStyle;rounded=0;orthogonalLoop=1;jettySize=auto;html=1;entryX=0.5;entryY=0;entryDx=0;entryDy=0;" edge="1" parent="1" source="ry9LyBkneQpmExAJehDU-385" target="ry9LyBkneQpmExAJehDU-386">
          <mxGeometry relative="1" as="geometry" />
        </mxCell>
        <mxCell id="ry9LyBkneQpmExAJehDU-385" value="&lt;p style=&quot;line-height: 120%;&quot;&gt;&lt;/p&gt;&lt;div style=&quot;line-height: 120%; white-space: pre;&quot;&gt;&lt;span style=&quot;background-color: rgb(255, 255, 255);&quot;&gt;&lt;font style=&quot;font-size: 12px;&quot; face=&quot;Helvetica&quot;&gt;PrintToDisplay(&lt;span style=&quot;&quot;&gt;&quot;page33.t5.txt=&lt;/span&gt;&lt;span style=&quot;&quot;&gt;\&quot;&lt;/span&gt;&lt;span style=&quot;&quot;&gt;No&lt;/span&gt;&lt;span style=&quot;&quot;&gt;\&quot;&lt;/span&gt;&lt;span style=&quot;&quot;&gt;&quot;)&lt;/span&gt;&lt;/font&gt;&lt;/span&gt;&lt;/div&gt;&lt;div style=&quot;line-height: 120%; white-space: pre;&quot;&gt;&lt;span style=&quot;background-color: rgb(255, 255, 255);&quot;&gt;(Serial Display/Print_To_Dispaly)&lt;/span&gt;&lt;/div&gt;&lt;p&gt;&lt;/p&gt;" style="shape=process;whiteSpace=wrap;html=1;backgroundOutline=1;" vertex="1" parent="1">
          <mxGeometry x="609" y="720" width="302.5" height="60" as="geometry" />
        </mxCell>
        <mxCell id="ry9LyBkneQpmExAJehDU-400" style="edgeStyle=orthogonalEdgeStyle;rounded=0;orthogonalLoop=1;jettySize=auto;html=1;" edge="1" parent="1" source="ry9LyBkneQpmExAJehDU-386" target="ry9LyBkneQpmExAJehDU-387">
          <mxGeometry relative="1" as="geometry" />
        </mxCell>
        <mxCell id="ry9LyBkneQpmExAJehDU-386" value="&lt;p style=&quot;line-height: 120%;&quot;&gt;&lt;/p&gt;&lt;div style=&quot;line-height: 120%; white-space: pre;&quot;&gt;&lt;span style=&quot;background-color: rgb(255, 255, 255);&quot;&gt;&lt;font style=&quot;font-size: 12px;&quot; face=&quot;Helvetica&quot;&gt;PrintToDisplay(&lt;span style=&quot;&quot;&gt;&quot;page34.t5.txt=&lt;/span&gt;&lt;span style=&quot;&quot;&gt;\&quot;&lt;/span&gt;&lt;span style=&quot;&quot;&gt;No&lt;/span&gt;&lt;span style=&quot;&quot;&gt;\&quot;&lt;/span&gt;&lt;span style=&quot;&quot;&gt;&quot;)&lt;/span&gt;&lt;/font&gt;&lt;/span&gt;&lt;/div&gt;&lt;div style=&quot;line-height: 120%; white-space: pre;&quot;&gt;&lt;span style=&quot;background-color: rgb(255, 255, 255);&quot;&gt;(Serial Display/Print_To_Dispaly)&lt;/span&gt;&lt;/div&gt;&lt;p&gt;&lt;/p&gt;" style="shape=process;whiteSpace=wrap;html=1;backgroundOutline=1;" vertex="1" parent="1">
          <mxGeometry x="609" y="800" width="302.5" height="60" as="geometry" />
        </mxCell>
        <mxCell id="ry9LyBkneQpmExAJehDU-401" style="edgeStyle=orthogonalEdgeStyle;rounded=0;orthogonalLoop=1;jettySize=auto;html=1;entryX=0.5;entryY=0;entryDx=0;entryDy=0;" edge="1" parent="1" source="ry9LyBkneQpmExAJehDU-387" target="ry9LyBkneQpmExAJehDU-388">
          <mxGeometry relative="1" as="geometry" />
        </mxCell>
        <mxCell id="ry9LyBkneQpmExAJehDU-387" value="&lt;p style=&quot;line-height: 120%;&quot;&gt;&lt;/p&gt;&lt;div style=&quot;line-height: 120%; white-space: pre;&quot;&gt;&lt;span style=&quot;background-color: rgb(255, 255, 255);&quot;&gt;&lt;font style=&quot;font-size: 12px;&quot; face=&quot;Helvetica&quot;&gt;PrintToDisplay(&lt;span style=&quot;&quot;&gt;&quot;page35.t5.txt=&lt;/span&gt;&lt;span style=&quot;&quot;&gt;\&quot;&lt;/span&gt;&lt;span style=&quot;&quot;&gt;No&lt;/span&gt;&lt;span style=&quot;&quot;&gt;\&quot;&lt;/span&gt;&lt;span style=&quot;&quot;&gt;&quot;)&lt;/span&gt;&lt;/font&gt;&lt;/span&gt;&lt;/div&gt;&lt;div style=&quot;line-height: 120%; white-space: pre;&quot;&gt;&lt;span style=&quot;background-color: rgb(255, 255, 255);&quot;&gt;(Serial Display/Print_To_Dispaly)&lt;/span&gt;&lt;/div&gt;&lt;p&gt;&lt;/p&gt;" style="shape=process;whiteSpace=wrap;html=1;backgroundOutline=1;" vertex="1" parent="1">
          <mxGeometry x="609" y="880" width="302.5" height="60" as="geometry" />
        </mxCell>
        <mxCell id="ry9LyBkneQpmExAJehDU-402" style="edgeStyle=orthogonalEdgeStyle;rounded=0;orthogonalLoop=1;jettySize=auto;html=1;entryX=0.5;entryY=0;entryDx=0;entryDy=0;" edge="1" parent="1" source="ry9LyBkneQpmExAJehDU-388" target="ry9LyBkneQpmExAJehDU-389">
          <mxGeometry relative="1" as="geometry" />
        </mxCell>
        <mxCell id="ry9LyBkneQpmExAJehDU-388" value="&lt;p style=&quot;line-height: 120%;&quot;&gt;&lt;/p&gt;&lt;div style=&quot;line-height: 120%; white-space: pre;&quot;&gt;&lt;span style=&quot;background-color: rgb(255, 255, 255);&quot;&gt;&lt;font style=&quot;font-size: 12px;&quot; face=&quot;Helvetica&quot;&gt;PrintToDisplay(&lt;span style=&quot;&quot;&gt;&quot;page4.t5.txt=&lt;/span&gt;&lt;span style=&quot;&quot;&gt;\&quot;&lt;/span&gt;&lt;span style=&quot;&quot;&gt;No&lt;/span&gt;&lt;span style=&quot;&quot;&gt;\&quot;&lt;/span&gt;&lt;span style=&quot;&quot;&gt;&quot;)&lt;/span&gt;&lt;/font&gt;&lt;/span&gt;&lt;/div&gt;&lt;div style=&quot;line-height: 120%; white-space: pre;&quot;&gt;&lt;span style=&quot;background-color: rgb(255, 255, 255);&quot;&gt;(Serial Display/Print_To_Dispaly)&lt;/span&gt;&lt;/div&gt;&lt;p&gt;&lt;/p&gt;" style="shape=process;whiteSpace=wrap;html=1;backgroundOutline=1;" vertex="1" parent="1">
          <mxGeometry x="609" y="960" width="302.5" height="60" as="geometry" />
        </mxCell>
        <mxCell id="ry9LyBkneQpmExAJehDU-403" style="edgeStyle=orthogonalEdgeStyle;rounded=0;orthogonalLoop=1;jettySize=auto;html=1;entryX=0.5;entryY=0;entryDx=0;entryDy=0;" edge="1" parent="1" source="ry9LyBkneQpmExAJehDU-389" target="ry9LyBkneQpmExAJehDU-390">
          <mxGeometry relative="1" as="geometry" />
        </mxCell>
        <mxCell id="ry9LyBkneQpmExAJehDU-389" value="&lt;p style=&quot;line-height: 120%;&quot;&gt;&lt;/p&gt;&lt;div style=&quot;line-height: 120%; white-space: pre;&quot;&gt;&lt;span style=&quot;background-color: rgb(255, 255, 255);&quot;&gt;&lt;font style=&quot;font-size: 12px;&quot; face=&quot;Helvetica&quot;&gt;PrintToDisplay(&lt;span style=&quot;&quot;&gt;&quot;page41.t5.txt=&lt;/span&gt;&lt;span style=&quot;&quot;&gt;\&quot;&lt;/span&gt;&lt;span style=&quot;&quot;&gt;No&lt;/span&gt;&lt;span style=&quot;&quot;&gt;\&quot;&lt;/span&gt;&lt;span style=&quot;&quot;&gt;&quot;)&lt;/span&gt;&lt;/font&gt;&lt;/span&gt;&lt;/div&gt;&lt;div style=&quot;line-height: 120%; white-space: pre;&quot;&gt;&lt;span style=&quot;background-color: rgb(255, 255, 255);&quot;&gt;(Serial Display/Print_To_Dispaly)&lt;/span&gt;&lt;/div&gt;&lt;p&gt;&lt;/p&gt;" style="shape=process;whiteSpace=wrap;html=1;backgroundOutline=1;" vertex="1" parent="1">
          <mxGeometry x="609" y="1040" width="302.5" height="60" as="geometry" />
        </mxCell>
        <mxCell id="ry9LyBkneQpmExAJehDU-404" style="edgeStyle=orthogonalEdgeStyle;rounded=0;orthogonalLoop=1;jettySize=auto;html=1;entryX=0.5;entryY=0;entryDx=0;entryDy=0;" edge="1" parent="1" source="ry9LyBkneQpmExAJehDU-390" target="ry9LyBkneQpmExAJehDU-391">
          <mxGeometry relative="1" as="geometry" />
        </mxCell>
        <mxCell id="ry9LyBkneQpmExAJehDU-390" value="&lt;p style=&quot;line-height: 120%;&quot;&gt;&lt;/p&gt;&lt;div style=&quot;line-height: 120%; white-space: pre;&quot;&gt;&lt;span style=&quot;background-color: rgb(255, 255, 255);&quot;&gt;&lt;font style=&quot;font-size: 12px;&quot; face=&quot;Helvetica&quot;&gt;PrintToDisplay(&lt;span style=&quot;&quot;&gt;&quot;page42.t5.txt=&lt;/span&gt;&lt;span style=&quot;&quot;&gt;\&quot;&lt;/span&gt;&lt;span style=&quot;&quot;&gt;No&lt;/span&gt;&lt;span style=&quot;&quot;&gt;\&quot;&lt;/span&gt;&lt;span style=&quot;&quot;&gt;&quot;)&lt;/span&gt;&lt;/font&gt;&lt;/span&gt;&lt;/div&gt;&lt;div style=&quot;line-height: 120%; white-space: pre;&quot;&gt;&lt;span style=&quot;background-color: rgb(255, 255, 255);&quot;&gt;(Serial Display/Print_To_Dispaly)&lt;/span&gt;&lt;/div&gt;&lt;p&gt;&lt;/p&gt;" style="shape=process;whiteSpace=wrap;html=1;backgroundOutline=1;" vertex="1" parent="1">
          <mxGeometry x="609" y="1120" width="302.5" height="60" as="geometry" />
        </mxCell>
        <mxCell id="ry9LyBkneQpmExAJehDU-610" style="edgeStyle=orthogonalEdgeStyle;rounded=0;orthogonalLoop=1;jettySize=auto;html=1;entryX=0.5;entryY=0;entryDx=0;entryDy=0;" edge="1" parent="1" source="ry9LyBkneQpmExAJehDU-391" target="ry9LyBkneQpmExAJehDU-407">
          <mxGeometry relative="1" as="geometry" />
        </mxCell>
        <mxCell id="ry9LyBkneQpmExAJehDU-391" value="&lt;p style=&quot;line-height: 120%;&quot;&gt;&lt;/p&gt;&lt;div style=&quot;line-height: 120%; white-space: pre;&quot;&gt;&lt;span style=&quot;background-color: rgb(255, 255, 255);&quot;&gt;&lt;font style=&quot;font-size: 12px;&quot; face=&quot;Helvetica&quot;&gt;PrintToDisplay(&lt;span style=&quot;&quot;&gt;&quot;page43.t5.txt=&lt;/span&gt;&lt;span style=&quot;&quot;&gt;\&quot;&lt;/span&gt;&lt;span style=&quot;&quot;&gt;No&lt;/span&gt;&lt;span style=&quot;&quot;&gt;\&quot;&lt;/span&gt;&lt;span style=&quot;&quot;&gt;&quot;)&lt;/span&gt;&lt;/font&gt;&lt;/span&gt;&lt;/div&gt;&lt;div style=&quot;line-height: 120%; white-space: pre;&quot;&gt;&lt;span style=&quot;background-color: rgb(255, 255, 255);&quot;&gt;(Serial Display/Print_To_Dispaly)&lt;/span&gt;&lt;/div&gt;&lt;p&gt;&lt;/p&gt;" style="shape=process;whiteSpace=wrap;html=1;backgroundOutline=1;" vertex="1" parent="1">
          <mxGeometry x="609" y="1200" width="302.5" height="60" as="geometry" />
        </mxCell>
        <mxCell id="ry9LyBkneQpmExAJehDU-406" value="No" style="text;html=1;strokeColor=none;fillColor=none;align=center;verticalAlign=middle;whiteSpace=wrap;rounded=0;" vertex="1" parent="1">
          <mxGeometry x="510" y="240" width="20" height="30" as="geometry" />
        </mxCell>
        <mxCell id="ry9LyBkneQpmExAJehDU-607" style="edgeStyle=orthogonalEdgeStyle;rounded=0;orthogonalLoop=1;jettySize=auto;html=1;entryX=0.5;entryY=0;entryDx=0;entryDy=0;" edge="1" parent="1" source="ry9LyBkneQpmExAJehDU-407" target="ry9LyBkneQpmExAJehDU-117">
          <mxGeometry relative="1" as="geometry" />
        </mxCell>
        <mxCell id="ry9LyBkneQpmExAJehDU-611" style="edgeStyle=orthogonalEdgeStyle;rounded=0;orthogonalLoop=1;jettySize=auto;html=1;entryX=0.5;entryY=0;entryDx=0;entryDy=0;exitX=1;exitY=0.5;exitDx=0;exitDy=0;" edge="1" parent="1" source="ry9LyBkneQpmExAJehDU-407" target="ry9LyBkneQpmExAJehDU-478">
          <mxGeometry relative="1" as="geometry" />
        </mxCell>
        <mxCell id="ry9LyBkneQpmExAJehDU-407" value="if (RaspConnection = RaspberryConnected)" style="rhombus;whiteSpace=wrap;html=1;" vertex="1" parent="1">
          <mxGeometry x="452" y="1310" width="178" height="160" as="geometry" />
        </mxCell>
        <mxCell id="ry9LyBkneQpmExAJehDU-408" value="Yes" style="text;html=1;strokeColor=none;fillColor=none;align=center;verticalAlign=middle;whiteSpace=wrap;rounded=0;" vertex="1" parent="1">
          <mxGeometry x="634.5" y="1358" width="20" height="30" as="geometry" />
        </mxCell>
        <mxCell id="ry9LyBkneQpmExAJehDU-409" value="No" style="text;html=1;strokeColor=none;fillColor=none;align=center;verticalAlign=middle;whiteSpace=wrap;rounded=0;" vertex="1" parent="1">
          <mxGeometry x="510" y="1470" width="20" height="30" as="geometry" />
        </mxCell>
        <mxCell id="ry9LyBkneQpmExAJehDU-412" value="" style="edgeStyle=orthogonalEdgeStyle;rounded=0;orthogonalLoop=1;jettySize=auto;html=1;" edge="1" parent="1" source="ry9LyBkneQpmExAJehDU-413" target="ry9LyBkneQpmExAJehDU-417">
          <mxGeometry relative="1" as="geometry" />
        </mxCell>
        <mxCell id="ry9LyBkneQpmExAJehDU-582" style="edgeStyle=orthogonalEdgeStyle;rounded=0;orthogonalLoop=1;jettySize=auto;html=1;entryX=0.5;entryY=0;entryDx=0;entryDy=0;" edge="1" parent="1" source="ry9LyBkneQpmExAJehDU-413" target="ry9LyBkneQpmExAJehDU-561">
          <mxGeometry relative="1" as="geometry" />
        </mxCell>
        <mxCell id="ry9LyBkneQpmExAJehDU-413" value="if (Data_From_Display = &quot;GoPage3)" style="rhombus;whiteSpace=wrap;html=1;" vertex="1" parent="1">
          <mxGeometry x="629.5" y="2040" width="178" height="160" as="geometry" />
        </mxCell>
        <mxCell id="ry9LyBkneQpmExAJehDU-416" value="" style="edgeStyle=orthogonalEdgeStyle;rounded=0;orthogonalLoop=1;jettySize=auto;html=1;" edge="1" parent="1" source="ry9LyBkneQpmExAJehDU-417" target="ry9LyBkneQpmExAJehDU-421">
          <mxGeometry relative="1" as="geometry" />
        </mxCell>
        <mxCell id="ry9LyBkneQpmExAJehDU-583" style="edgeStyle=orthogonalEdgeStyle;rounded=0;orthogonalLoop=1;jettySize=auto;html=1;entryX=0.5;entryY=0;entryDx=0;entryDy=0;" edge="1" parent="1" source="ry9LyBkneQpmExAJehDU-417" target="ry9LyBkneQpmExAJehDU-563">
          <mxGeometry relative="1" as="geometry" />
        </mxCell>
        <mxCell id="ry9LyBkneQpmExAJehDU-417" value="if (Data_From_Display = &quot;GoPage31)" style="rhombus;whiteSpace=wrap;html=1;" vertex="1" parent="1">
          <mxGeometry x="629.5" y="2232" width="178" height="160" as="geometry" />
        </mxCell>
        <mxCell id="ry9LyBkneQpmExAJehDU-420" value="" style="edgeStyle=orthogonalEdgeStyle;rounded=0;orthogonalLoop=1;jettySize=auto;html=1;" edge="1" parent="1" source="ry9LyBkneQpmExAJehDU-421" target="ry9LyBkneQpmExAJehDU-425">
          <mxGeometry relative="1" as="geometry" />
        </mxCell>
        <mxCell id="ry9LyBkneQpmExAJehDU-584" style="edgeStyle=orthogonalEdgeStyle;rounded=0;orthogonalLoop=1;jettySize=auto;html=1;entryX=0.5;entryY=0;entryDx=0;entryDy=0;" edge="1" parent="1" source="ry9LyBkneQpmExAJehDU-421" target="ry9LyBkneQpmExAJehDU-565">
          <mxGeometry relative="1" as="geometry" />
        </mxCell>
        <mxCell id="ry9LyBkneQpmExAJehDU-421" value="if (Data_From_Display = &quot;GoPage32)" style="rhombus;whiteSpace=wrap;html=1;" vertex="1" parent="1">
          <mxGeometry x="629.5" y="2422" width="178" height="160" as="geometry" />
        </mxCell>
        <mxCell id="ry9LyBkneQpmExAJehDU-424" value="" style="edgeStyle=orthogonalEdgeStyle;rounded=0;orthogonalLoop=1;jettySize=auto;html=1;" edge="1" parent="1" source="ry9LyBkneQpmExAJehDU-425" target="ry9LyBkneQpmExAJehDU-429">
          <mxGeometry relative="1" as="geometry" />
        </mxCell>
        <mxCell id="ry9LyBkneQpmExAJehDU-585" style="edgeStyle=orthogonalEdgeStyle;rounded=0;orthogonalLoop=1;jettySize=auto;html=1;entryX=0.5;entryY=0;entryDx=0;entryDy=0;" edge="1" parent="1" source="ry9LyBkneQpmExAJehDU-425" target="ry9LyBkneQpmExAJehDU-567">
          <mxGeometry relative="1" as="geometry" />
        </mxCell>
        <mxCell id="ry9LyBkneQpmExAJehDU-425" value="if (Data_From_Display = &quot;GoPage33)" style="rhombus;whiteSpace=wrap;html=1;" vertex="1" parent="1">
          <mxGeometry x="629.5" y="2612" width="178" height="160" as="geometry" />
        </mxCell>
        <mxCell id="ry9LyBkneQpmExAJehDU-428" value="" style="edgeStyle=orthogonalEdgeStyle;rounded=0;orthogonalLoop=1;jettySize=auto;html=1;" edge="1" parent="1" source="ry9LyBkneQpmExAJehDU-429" target="ry9LyBkneQpmExAJehDU-433">
          <mxGeometry relative="1" as="geometry" />
        </mxCell>
        <mxCell id="ry9LyBkneQpmExAJehDU-586" style="edgeStyle=orthogonalEdgeStyle;rounded=0;orthogonalLoop=1;jettySize=auto;html=1;entryX=0.5;entryY=0;entryDx=0;entryDy=0;" edge="1" parent="1" source="ry9LyBkneQpmExAJehDU-429" target="ry9LyBkneQpmExAJehDU-569">
          <mxGeometry relative="1" as="geometry" />
        </mxCell>
        <mxCell id="ry9LyBkneQpmExAJehDU-429" value="if (Data_From_Display = &quot;GoPage34)" style="rhombus;whiteSpace=wrap;html=1;" vertex="1" parent="1">
          <mxGeometry x="629.5" y="2802" width="178" height="160" as="geometry" />
        </mxCell>
        <mxCell id="ry9LyBkneQpmExAJehDU-432" value="" style="edgeStyle=orthogonalEdgeStyle;rounded=0;orthogonalLoop=1;jettySize=auto;html=1;" edge="1" parent="1" source="ry9LyBkneQpmExAJehDU-433" target="ry9LyBkneQpmExAJehDU-437">
          <mxGeometry relative="1" as="geometry" />
        </mxCell>
        <mxCell id="ry9LyBkneQpmExAJehDU-588" style="edgeStyle=orthogonalEdgeStyle;rounded=0;orthogonalLoop=1;jettySize=auto;html=1;entryX=0.5;entryY=0;entryDx=0;entryDy=0;" edge="1" parent="1" source="ry9LyBkneQpmExAJehDU-433" target="ry9LyBkneQpmExAJehDU-571">
          <mxGeometry relative="1" as="geometry" />
        </mxCell>
        <mxCell id="ry9LyBkneQpmExAJehDU-433" value="if (Data_From_Display = &quot;GoPage35)" style="rhombus;whiteSpace=wrap;html=1;" vertex="1" parent="1">
          <mxGeometry x="629.5" y="2992" width="178" height="160" as="geometry" />
        </mxCell>
        <mxCell id="ry9LyBkneQpmExAJehDU-436" value="" style="edgeStyle=orthogonalEdgeStyle;rounded=0;orthogonalLoop=1;jettySize=auto;html=1;" edge="1" parent="1" source="ry9LyBkneQpmExAJehDU-437" target="ry9LyBkneQpmExAJehDU-441">
          <mxGeometry relative="1" as="geometry" />
        </mxCell>
        <mxCell id="ry9LyBkneQpmExAJehDU-590" style="edgeStyle=orthogonalEdgeStyle;rounded=0;orthogonalLoop=1;jettySize=auto;html=1;entryX=0.5;entryY=0;entryDx=0;entryDy=0;" edge="1" parent="1" source="ry9LyBkneQpmExAJehDU-437" target="ry9LyBkneQpmExAJehDU-573">
          <mxGeometry relative="1" as="geometry" />
        </mxCell>
        <mxCell id="ry9LyBkneQpmExAJehDU-437" value="if (Data_From_Display = &quot;GoPage4)" style="rhombus;whiteSpace=wrap;html=1;" vertex="1" parent="1">
          <mxGeometry x="629.5" y="3192" width="178" height="160" as="geometry" />
        </mxCell>
        <mxCell id="ry9LyBkneQpmExAJehDU-440" value="" style="edgeStyle=orthogonalEdgeStyle;rounded=0;orthogonalLoop=1;jettySize=auto;html=1;" edge="1" parent="1" source="ry9LyBkneQpmExAJehDU-441" target="ry9LyBkneQpmExAJehDU-445">
          <mxGeometry relative="1" as="geometry" />
        </mxCell>
        <mxCell id="ry9LyBkneQpmExAJehDU-591" style="edgeStyle=orthogonalEdgeStyle;rounded=0;orthogonalLoop=1;jettySize=auto;html=1;entryX=0.5;entryY=0;entryDx=0;entryDy=0;" edge="1" parent="1" source="ry9LyBkneQpmExAJehDU-441" target="ry9LyBkneQpmExAJehDU-575">
          <mxGeometry relative="1" as="geometry" />
        </mxCell>
        <mxCell id="ry9LyBkneQpmExAJehDU-441" value="if (Data_From_Display = &quot;GoPage41)" style="rhombus;whiteSpace=wrap;html=1;" vertex="1" parent="1">
          <mxGeometry x="629.5" y="3382" width="178" height="160" as="geometry" />
        </mxCell>
        <mxCell id="ry9LyBkneQpmExAJehDU-444" value="" style="edgeStyle=orthogonalEdgeStyle;rounded=0;orthogonalLoop=1;jettySize=auto;html=1;" edge="1" parent="1" source="ry9LyBkneQpmExAJehDU-445" target="ry9LyBkneQpmExAJehDU-449">
          <mxGeometry relative="1" as="geometry" />
        </mxCell>
        <mxCell id="ry9LyBkneQpmExAJehDU-592" style="edgeStyle=orthogonalEdgeStyle;rounded=0;orthogonalLoop=1;jettySize=auto;html=1;entryX=0.5;entryY=0;entryDx=0;entryDy=0;" edge="1" parent="1" source="ry9LyBkneQpmExAJehDU-445" target="ry9LyBkneQpmExAJehDU-577">
          <mxGeometry relative="1" as="geometry" />
        </mxCell>
        <mxCell id="ry9LyBkneQpmExAJehDU-445" value="if (Data_From_Display = &quot;GoPage42)" style="rhombus;whiteSpace=wrap;html=1;" vertex="1" parent="1">
          <mxGeometry x="629.5" y="3572" width="178" height="160" as="geometry" />
        </mxCell>
        <mxCell id="ry9LyBkneQpmExAJehDU-593" style="edgeStyle=orthogonalEdgeStyle;rounded=0;orthogonalLoop=1;jettySize=auto;html=1;entryX=0.5;entryY=0;entryDx=0;entryDy=0;" edge="1" parent="1" source="ry9LyBkneQpmExAJehDU-449" target="ry9LyBkneQpmExAJehDU-578">
          <mxGeometry relative="1" as="geometry" />
        </mxCell>
        <mxCell id="ry9LyBkneQpmExAJehDU-608" style="edgeStyle=orthogonalEdgeStyle;rounded=0;orthogonalLoop=1;jettySize=auto;html=1;entryX=0.5;entryY=0;entryDx=0;entryDy=0;exitX=0.5;exitY=1;exitDx=0;exitDy=0;" edge="1" parent="1" source="ry9LyBkneQpmExAJehDU-449" target="ry9LyBkneQpmExAJehDU-117">
          <mxGeometry relative="1" as="geometry">
            <Array as="points">
              <mxPoint x="718" y="4010" />
              <mxPoint x="541" y="4010" />
            </Array>
          </mxGeometry>
        </mxCell>
        <mxCell id="ry9LyBkneQpmExAJehDU-449" value="if (Data_From_Display = &quot;GoPage43)" style="rhombus;whiteSpace=wrap;html=1;" vertex="1" parent="1">
          <mxGeometry x="629.5" y="3762" width="178" height="160" as="geometry" />
        </mxCell>
        <mxCell id="ry9LyBkneQpmExAJehDU-454" value="Yes" style="text;html=1;strokeColor=none;fillColor=none;align=center;verticalAlign=middle;whiteSpace=wrap;rounded=0;" vertex="1" parent="1">
          <mxGeometry x="814" y="2098" width="20" height="30" as="geometry" />
        </mxCell>
        <mxCell id="ry9LyBkneQpmExAJehDU-455" value="No" style="text;html=1;strokeColor=none;fillColor=none;align=center;verticalAlign=middle;whiteSpace=wrap;rounded=0;" vertex="1" parent="1">
          <mxGeometry x="695.5" y="2188" width="20" height="30" as="geometry" />
        </mxCell>
        <mxCell id="ry9LyBkneQpmExAJehDU-456" value="Yes" style="text;html=1;strokeColor=none;fillColor=none;align=center;verticalAlign=middle;whiteSpace=wrap;rounded=0;" vertex="1" parent="1">
          <mxGeometry x="814" y="2290" width="20" height="30" as="geometry" />
        </mxCell>
        <mxCell id="ry9LyBkneQpmExAJehDU-457" value="No" style="text;html=1;strokeColor=none;fillColor=none;align=center;verticalAlign=middle;whiteSpace=wrap;rounded=0;" vertex="1" parent="1">
          <mxGeometry x="695.5" y="2378" width="20" height="30" as="geometry" />
        </mxCell>
        <mxCell id="ry9LyBkneQpmExAJehDU-458" value="Yes" style="text;html=1;strokeColor=none;fillColor=none;align=center;verticalAlign=middle;whiteSpace=wrap;rounded=0;" vertex="1" parent="1">
          <mxGeometry x="814.5" y="2480" width="20" height="30" as="geometry" />
        </mxCell>
        <mxCell id="ry9LyBkneQpmExAJehDU-459" value="No" style="text;html=1;strokeColor=none;fillColor=none;align=center;verticalAlign=middle;whiteSpace=wrap;rounded=0;" vertex="1" parent="1">
          <mxGeometry x="695.5" y="2574" width="20" height="30" as="geometry" />
        </mxCell>
        <mxCell id="ry9LyBkneQpmExAJehDU-460" value="Yes" style="text;html=1;strokeColor=none;fillColor=none;align=center;verticalAlign=middle;whiteSpace=wrap;rounded=0;" vertex="1" parent="1">
          <mxGeometry x="814.5" y="2670" width="20" height="30" as="geometry" />
        </mxCell>
        <mxCell id="ry9LyBkneQpmExAJehDU-461" value="No" style="text;html=1;strokeColor=none;fillColor=none;align=center;verticalAlign=middle;whiteSpace=wrap;rounded=0;" vertex="1" parent="1">
          <mxGeometry x="695.5" y="2765" width="20" height="30" as="geometry" />
        </mxCell>
        <mxCell id="ry9LyBkneQpmExAJehDU-462" value="Yes" style="text;html=1;strokeColor=none;fillColor=none;align=center;verticalAlign=middle;whiteSpace=wrap;rounded=0;" vertex="1" parent="1">
          <mxGeometry x="814" y="2860" width="20" height="30" as="geometry" />
        </mxCell>
        <mxCell id="ry9LyBkneQpmExAJehDU-463" value="No" style="text;html=1;strokeColor=none;fillColor=none;align=center;verticalAlign=middle;whiteSpace=wrap;rounded=0;" vertex="1" parent="1">
          <mxGeometry x="695.5" y="2953" width="20" height="30" as="geometry" />
        </mxCell>
        <mxCell id="ry9LyBkneQpmExAJehDU-464" value="Yes" style="text;html=1;strokeColor=none;fillColor=none;align=center;verticalAlign=middle;whiteSpace=wrap;rounded=0;" vertex="1" parent="1">
          <mxGeometry x="814" y="3050" width="20" height="30" as="geometry" />
        </mxCell>
        <mxCell id="ry9LyBkneQpmExAJehDU-465" value="No" style="text;html=1;strokeColor=none;fillColor=none;align=center;verticalAlign=middle;whiteSpace=wrap;rounded=0;" vertex="1" parent="1">
          <mxGeometry x="695.5" y="3144" width="20" height="30" as="geometry" />
        </mxCell>
        <mxCell id="ry9LyBkneQpmExAJehDU-466" value="Yes" style="text;html=1;strokeColor=none;fillColor=none;align=center;verticalAlign=middle;whiteSpace=wrap;rounded=0;" vertex="1" parent="1">
          <mxGeometry x="814" y="3250" width="20" height="30" as="geometry" />
        </mxCell>
        <mxCell id="ry9LyBkneQpmExAJehDU-467" value="No" style="text;html=1;strokeColor=none;fillColor=none;align=center;verticalAlign=middle;whiteSpace=wrap;rounded=0;" vertex="1" parent="1">
          <mxGeometry x="695.5" y="3347" width="20" height="30" as="geometry" />
        </mxCell>
        <mxCell id="ry9LyBkneQpmExAJehDU-468" value="Yes" style="text;html=1;strokeColor=none;fillColor=none;align=center;verticalAlign=middle;whiteSpace=wrap;rounded=0;" vertex="1" parent="1">
          <mxGeometry x="814.5" y="3440" width="20" height="30" as="geometry" />
        </mxCell>
        <mxCell id="ry9LyBkneQpmExAJehDU-469" value="No" style="text;html=1;strokeColor=none;fillColor=none;align=center;verticalAlign=middle;whiteSpace=wrap;rounded=0;" vertex="1" parent="1">
          <mxGeometry x="695.5" y="3537" width="20" height="30" as="geometry" />
        </mxCell>
        <mxCell id="ry9LyBkneQpmExAJehDU-470" value="Yes" style="text;html=1;strokeColor=none;fillColor=none;align=center;verticalAlign=middle;whiteSpace=wrap;rounded=0;" vertex="1" parent="1">
          <mxGeometry x="814.5" y="3630" width="20" height="30" as="geometry" />
        </mxCell>
        <mxCell id="ry9LyBkneQpmExAJehDU-471" value="No" style="text;html=1;strokeColor=none;fillColor=none;align=center;verticalAlign=middle;whiteSpace=wrap;rounded=0;" vertex="1" parent="1">
          <mxGeometry x="695.5" y="3727" width="20" height="30" as="geometry" />
        </mxCell>
        <mxCell id="ry9LyBkneQpmExAJehDU-472" value="Yes" style="text;html=1;strokeColor=none;fillColor=none;align=center;verticalAlign=middle;whiteSpace=wrap;rounded=0;" vertex="1" parent="1">
          <mxGeometry x="814.5" y="3820" width="20" height="30" as="geometry" />
        </mxCell>
        <mxCell id="ry9LyBkneQpmExAJehDU-473" value="No" style="text;html=1;strokeColor=none;fillColor=none;align=center;verticalAlign=middle;whiteSpace=wrap;rounded=0;" vertex="1" parent="1">
          <mxGeometry x="695.5" y="3917" width="20" height="30" as="geometry" />
        </mxCell>
        <mxCell id="ry9LyBkneQpmExAJehDU-477" value="" style="edgeStyle=orthogonalEdgeStyle;rounded=0;orthogonalLoop=1;jettySize=auto;html=1;" edge="1" parent="1" source="ry9LyBkneQpmExAJehDU-478" target="ry9LyBkneQpmExAJehDU-482">
          <mxGeometry relative="1" as="geometry" />
        </mxCell>
        <mxCell id="ry9LyBkneQpmExAJehDU-579" style="edgeStyle=orthogonalEdgeStyle;rounded=0;orthogonalLoop=1;jettySize=auto;html=1;entryX=0.5;entryY=0;entryDx=0;entryDy=0;" edge="1" parent="1" source="ry9LyBkneQpmExAJehDU-478" target="ry9LyBkneQpmExAJehDU-555">
          <mxGeometry relative="1" as="geometry" />
        </mxCell>
        <mxCell id="ry9LyBkneQpmExAJehDU-478" value="if (Data_From_Display = &quot;GoPage0)" style="rhombus;whiteSpace=wrap;html=1;" vertex="1" parent="1">
          <mxGeometry x="630" y="1440" width="178" height="160" as="geometry" />
        </mxCell>
        <mxCell id="ry9LyBkneQpmExAJehDU-548" value="" style="edgeStyle=orthogonalEdgeStyle;rounded=0;orthogonalLoop=1;jettySize=auto;html=1;" edge="1" parent="1" source="ry9LyBkneQpmExAJehDU-482" target="ry9LyBkneQpmExAJehDU-544">
          <mxGeometry relative="1" as="geometry" />
        </mxCell>
        <mxCell id="ry9LyBkneQpmExAJehDU-580" style="edgeStyle=orthogonalEdgeStyle;rounded=0;orthogonalLoop=1;jettySize=auto;html=1;entryX=0.5;entryY=0;entryDx=0;entryDy=0;" edge="1" parent="1" source="ry9LyBkneQpmExAJehDU-482" target="ry9LyBkneQpmExAJehDU-557">
          <mxGeometry relative="1" as="geometry" />
        </mxCell>
        <mxCell id="ry9LyBkneQpmExAJehDU-482" value="if (Data_From_Display = &quot;GoPage1)" style="rhombus;whiteSpace=wrap;html=1;" vertex="1" parent="1">
          <mxGeometry x="630" y="1632" width="178" height="160" as="geometry" />
        </mxCell>
        <mxCell id="ry9LyBkneQpmExAJehDU-519" value="Yes" style="text;html=1;strokeColor=none;fillColor=none;align=center;verticalAlign=middle;whiteSpace=wrap;rounded=0;" vertex="1" parent="1">
          <mxGeometry x="814.5" y="1500" width="20" height="30" as="geometry" />
        </mxCell>
        <mxCell id="ry9LyBkneQpmExAJehDU-520" value="No" style="text;html=1;strokeColor=none;fillColor=none;align=center;verticalAlign=middle;whiteSpace=wrap;rounded=0;" vertex="1" parent="1">
          <mxGeometry x="696" y="1588" width="20" height="30" as="geometry" />
        </mxCell>
        <mxCell id="ry9LyBkneQpmExAJehDU-521" value="Yes" style="text;html=1;strokeColor=none;fillColor=none;align=center;verticalAlign=middle;whiteSpace=wrap;rounded=0;" vertex="1" parent="1">
          <mxGeometry x="814.5" y="1690" width="20" height="30" as="geometry" />
        </mxCell>
        <mxCell id="ry9LyBkneQpmExAJehDU-522" value="No" style="text;html=1;strokeColor=none;fillColor=none;align=center;verticalAlign=middle;whiteSpace=wrap;rounded=0;" vertex="1" parent="1">
          <mxGeometry x="696" y="1778" width="20" height="30" as="geometry" />
        </mxCell>
        <mxCell id="ry9LyBkneQpmExAJehDU-549" value="" style="edgeStyle=orthogonalEdgeStyle;rounded=0;orthogonalLoop=1;jettySize=auto;html=1;" edge="1" parent="1" source="ry9LyBkneQpmExAJehDU-544" target="ry9LyBkneQpmExAJehDU-413">
          <mxGeometry relative="1" as="geometry" />
        </mxCell>
        <mxCell id="ry9LyBkneQpmExAJehDU-581" style="edgeStyle=orthogonalEdgeStyle;rounded=0;orthogonalLoop=1;jettySize=auto;html=1;entryX=0.5;entryY=0;entryDx=0;entryDy=0;" edge="1" parent="1" source="ry9LyBkneQpmExAJehDU-544" target="ry9LyBkneQpmExAJehDU-559">
          <mxGeometry relative="1" as="geometry" />
        </mxCell>
        <mxCell id="ry9LyBkneQpmExAJehDU-544" value="if (Data_From_Display = &quot;GoPage2)" style="rhombus;whiteSpace=wrap;html=1;" vertex="1" parent="1">
          <mxGeometry x="630" y="1828" width="178" height="160" as="geometry" />
        </mxCell>
        <mxCell id="ry9LyBkneQpmExAJehDU-546" value="Yes" style="text;html=1;strokeColor=none;fillColor=none;align=center;verticalAlign=middle;whiteSpace=wrap;rounded=0;" vertex="1" parent="1">
          <mxGeometry x="814" y="1883" width="20" height="30" as="geometry" />
        </mxCell>
        <mxCell id="ry9LyBkneQpmExAJehDU-547" value="No" style="text;html=1;strokeColor=none;fillColor=none;align=center;verticalAlign=middle;whiteSpace=wrap;rounded=0;" vertex="1" parent="1">
          <mxGeometry x="696" y="1976" width="20" height="30" as="geometry" />
        </mxCell>
        <mxCell id="ry9LyBkneQpmExAJehDU-605" style="edgeStyle=orthogonalEdgeStyle;rounded=0;orthogonalLoop=1;jettySize=auto;html=1;entryX=0.5;entryY=0;entryDx=0;entryDy=0;" edge="1" parent="1" source="ry9LyBkneQpmExAJehDU-555" target="ry9LyBkneQpmExAJehDU-482">
          <mxGeometry relative="1" as="geometry" />
        </mxCell>
        <mxCell id="ry9LyBkneQpmExAJehDU-555" value="&lt;p style=&quot;line-height: 120%;&quot;&gt;&lt;/p&gt;&lt;div style=&quot;line-height: 120%; white-space: pre;&quot;&gt;&lt;span style=&quot;background-color: rgb(255, 255, 255);&quot;&gt;&lt;font style=&quot;font-size: 12px;&quot; face=&quot;Helvetica&quot;&gt;PrintToDisplay(&lt;span style=&quot;&quot;&gt;&quot;page0.t5.txt=&lt;/span&gt;&lt;span style=&quot;&quot;&gt;\&quot;&lt;/span&gt;&lt;span style=&quot;&quot;&gt;Yes&lt;/span&gt;&lt;span style=&quot;&quot;&gt;\&quot;&lt;/span&gt;&lt;span style=&quot;&quot;&gt;&quot;)&lt;/span&gt;&lt;/font&gt;&lt;/span&gt;&lt;/div&gt;&lt;div style=&quot;line-height: 120%; white-space: pre;&quot;&gt;&lt;span style=&quot;background-color: rgb(255, 255, 255);&quot;&gt;(Serial Display/Print_To_Dispaly)&lt;/span&gt;&lt;/div&gt;&lt;p&gt;&lt;/p&gt;" style="shape=process;whiteSpace=wrap;html=1;backgroundOutline=1;" vertex="1" parent="1">
          <mxGeometry x="814" y="1580" width="302.5" height="60" as="geometry" />
        </mxCell>
        <mxCell id="ry9LyBkneQpmExAJehDU-604" style="edgeStyle=orthogonalEdgeStyle;rounded=0;orthogonalLoop=1;jettySize=auto;html=1;entryX=0.5;entryY=0;entryDx=0;entryDy=0;" edge="1" parent="1" source="ry9LyBkneQpmExAJehDU-557" target="ry9LyBkneQpmExAJehDU-544">
          <mxGeometry relative="1" as="geometry" />
        </mxCell>
        <mxCell id="ry9LyBkneQpmExAJehDU-557" value="&lt;p style=&quot;line-height: 120%;&quot;&gt;&lt;/p&gt;&lt;div style=&quot;line-height: 120%; white-space: pre;&quot;&gt;&lt;span style=&quot;background-color: rgb(255, 255, 255);&quot;&gt;&lt;font style=&quot;font-size: 12px;&quot; face=&quot;Helvetica&quot;&gt;PrintToDisplay(&lt;span style=&quot;&quot;&gt;&quot;page1.t8.txt=&lt;/span&gt;&lt;span style=&quot;&quot;&gt;\&quot;&lt;/span&gt;&lt;/font&gt;&lt;/span&gt;&lt;span style=&quot;background-color: rgb(255, 255, 255);&quot;&gt;Yes&lt;/span&gt;&lt;span style=&quot;background-color: rgb(255, 255, 255);&quot;&gt;&lt;font style=&quot;font-size: 12px;&quot; face=&quot;Helvetica&quot;&gt;&lt;span style=&quot;&quot;&gt;\&quot;&lt;/span&gt;&lt;span style=&quot;&quot;&gt;&quot;)&lt;/span&gt;&lt;/font&gt;&lt;/span&gt;&lt;/div&gt;&lt;div style=&quot;line-height: 120%; white-space: pre;&quot;&gt;&lt;span style=&quot;background-color: rgb(255, 255, 255);&quot;&gt;(Serial Display/Print_To_Dispaly)&lt;/span&gt;&lt;/div&gt;&lt;p&gt;&lt;/p&gt;" style="shape=process;whiteSpace=wrap;html=1;backgroundOutline=1;" vertex="1" parent="1">
          <mxGeometry x="814" y="1778" width="302.5" height="60" as="geometry" />
        </mxCell>
        <mxCell id="ry9LyBkneQpmExAJehDU-603" style="edgeStyle=orthogonalEdgeStyle;rounded=0;orthogonalLoop=1;jettySize=auto;html=1;entryX=0.5;entryY=0;entryDx=0;entryDy=0;" edge="1" parent="1" source="ry9LyBkneQpmExAJehDU-559" target="ry9LyBkneQpmExAJehDU-413">
          <mxGeometry relative="1" as="geometry" />
        </mxCell>
        <mxCell id="ry9LyBkneQpmExAJehDU-559" value="&lt;p style=&quot;line-height: 120%;&quot;&gt;&lt;/p&gt;&lt;div style=&quot;line-height: 120%; white-space: pre;&quot;&gt;&lt;span style=&quot;background-color: rgb(255, 255, 255);&quot;&gt;&lt;font style=&quot;font-size: 12px;&quot; face=&quot;Helvetica&quot;&gt;PrintToDisplay(&lt;span style=&quot;&quot;&gt;&quot;page2.t8.txt=&lt;/span&gt;&lt;span style=&quot;&quot;&gt;\&quot;&lt;/span&gt;&lt;/font&gt;&lt;/span&gt;&lt;span style=&quot;background-color: rgb(255, 255, 255);&quot;&gt;Yes&lt;/span&gt;&lt;span style=&quot;background-color: rgb(255, 255, 255);&quot;&gt;&lt;font style=&quot;font-size: 12px;&quot; face=&quot;Helvetica&quot;&gt;&lt;span style=&quot;&quot;&gt;\&quot;&lt;/span&gt;&lt;span style=&quot;&quot;&gt;&quot;)&lt;/span&gt;&lt;/font&gt;&lt;/span&gt;&lt;/div&gt;&lt;div style=&quot;line-height: 120%; white-space: pre;&quot;&gt;&lt;span style=&quot;background-color: rgb(255, 255, 255);&quot;&gt;(Serial Display/Print_To_Dispaly)&lt;/span&gt;&lt;/div&gt;&lt;p&gt;&lt;/p&gt;" style="shape=process;whiteSpace=wrap;html=1;backgroundOutline=1;" vertex="1" parent="1">
          <mxGeometry x="814.5" y="1988" width="302.5" height="60" as="geometry" />
        </mxCell>
        <mxCell id="ry9LyBkneQpmExAJehDU-602" style="edgeStyle=orthogonalEdgeStyle;rounded=0;orthogonalLoop=1;jettySize=auto;html=1;entryX=0.5;entryY=0;entryDx=0;entryDy=0;" edge="1" parent="1" source="ry9LyBkneQpmExAJehDU-561" target="ry9LyBkneQpmExAJehDU-417">
          <mxGeometry relative="1" as="geometry" />
        </mxCell>
        <mxCell id="ry9LyBkneQpmExAJehDU-561" value="&lt;p style=&quot;line-height: 120%;&quot;&gt;&lt;/p&gt;&lt;div style=&quot;line-height: 120%; white-space: pre;&quot;&gt;&lt;span style=&quot;background-color: rgb(255, 255, 255);&quot;&gt;&lt;font style=&quot;font-size: 12px;&quot; face=&quot;Helvetica&quot;&gt;PrintToDisplay(&lt;span style=&quot;&quot;&gt;&quot;page3.t5.txt=&lt;/span&gt;&lt;span style=&quot;&quot;&gt;\&quot;&lt;/span&gt;&lt;/font&gt;&lt;/span&gt;&lt;span style=&quot;background-color: rgb(255, 255, 255);&quot;&gt;Yes&lt;/span&gt;&lt;span style=&quot;background-color: rgb(255, 255, 255);&quot;&gt;&lt;font style=&quot;font-size: 12px;&quot; face=&quot;Helvetica&quot;&gt;&lt;span style=&quot;&quot;&gt;\&quot;&lt;/span&gt;&lt;span style=&quot;&quot;&gt;&quot;)&lt;/span&gt;&lt;/font&gt;&lt;/span&gt;&lt;/div&gt;&lt;div style=&quot;line-height: 120%; white-space: pre;&quot;&gt;&lt;span style=&quot;background-color: rgb(255, 255, 255);&quot;&gt;(Serial Display/Print_To_Dispaly)&lt;/span&gt;&lt;/div&gt;&lt;p&gt;&lt;/p&gt;" style="shape=process;whiteSpace=wrap;html=1;backgroundOutline=1;" vertex="1" parent="1">
          <mxGeometry x="814.5" y="2180" width="302.5" height="60" as="geometry" />
        </mxCell>
        <mxCell id="ry9LyBkneQpmExAJehDU-601" style="edgeStyle=orthogonalEdgeStyle;rounded=0;orthogonalLoop=1;jettySize=auto;html=1;entryX=0.5;entryY=0;entryDx=0;entryDy=0;" edge="1" parent="1" source="ry9LyBkneQpmExAJehDU-563" target="ry9LyBkneQpmExAJehDU-421">
          <mxGeometry relative="1" as="geometry" />
        </mxCell>
        <mxCell id="ry9LyBkneQpmExAJehDU-563" value="&lt;p style=&quot;line-height: 120%;&quot;&gt;&lt;/p&gt;&lt;div style=&quot;line-height: 120%; white-space: pre;&quot;&gt;&lt;span style=&quot;background-color: rgb(255, 255, 255);&quot;&gt;&lt;font style=&quot;font-size: 12px;&quot; face=&quot;Helvetica&quot;&gt;PrintToDisplay(&lt;span style=&quot;&quot;&gt;&quot;page31.t5.txt=&lt;/span&gt;&lt;span style=&quot;&quot;&gt;\&quot;&lt;/span&gt;&lt;/font&gt;&lt;/span&gt;&lt;span style=&quot;background-color: rgb(255, 255, 255);&quot;&gt;Yes&lt;/span&gt;&lt;span style=&quot;background-color: rgb(255, 255, 255);&quot;&gt;&lt;font style=&quot;font-size: 12px;&quot; face=&quot;Helvetica&quot;&gt;&lt;span style=&quot;&quot;&gt;\&quot;&lt;/span&gt;&lt;span style=&quot;&quot;&gt;&quot;)&lt;/span&gt;&lt;/font&gt;&lt;/span&gt;&lt;/div&gt;&lt;div style=&quot;line-height: 120%; white-space: pre;&quot;&gt;&lt;span style=&quot;background-color: rgb(255, 255, 255);&quot;&gt;(Serial Display/Print_To_Dispaly)&lt;/span&gt;&lt;/div&gt;&lt;p&gt;&lt;/p&gt;" style="shape=process;whiteSpace=wrap;html=1;backgroundOutline=1;" vertex="1" parent="1">
          <mxGeometry x="814.5" y="2370" width="302.5" height="60" as="geometry" />
        </mxCell>
        <mxCell id="ry9LyBkneQpmExAJehDU-600" style="edgeStyle=orthogonalEdgeStyle;rounded=0;orthogonalLoop=1;jettySize=auto;html=1;entryX=0.5;entryY=0;entryDx=0;entryDy=0;" edge="1" parent="1" source="ry9LyBkneQpmExAJehDU-565" target="ry9LyBkneQpmExAJehDU-425">
          <mxGeometry relative="1" as="geometry" />
        </mxCell>
        <mxCell id="ry9LyBkneQpmExAJehDU-565" value="&lt;p style=&quot;line-height: 120%;&quot;&gt;&lt;/p&gt;&lt;div style=&quot;line-height: 120%; white-space: pre;&quot;&gt;&lt;span style=&quot;background-color: rgb(255, 255, 255);&quot;&gt;&lt;font style=&quot;font-size: 12px;&quot; face=&quot;Helvetica&quot;&gt;PrintToDisplay(&lt;span style=&quot;&quot;&gt;&quot;page32.t5.txt=&lt;/span&gt;&lt;span style=&quot;&quot;&gt;\&quot;&lt;/span&gt;&lt;/font&gt;&lt;/span&gt;&lt;span style=&quot;background-color: rgb(255, 255, 255);&quot;&gt;Yes&lt;/span&gt;&lt;span style=&quot;background-color: rgb(255, 255, 255);&quot;&gt;&lt;font style=&quot;font-size: 12px;&quot; face=&quot;Helvetica&quot;&gt;&lt;span style=&quot;&quot;&gt;\&quot;&lt;/span&gt;&lt;span style=&quot;&quot;&gt;&quot;)&lt;/span&gt;&lt;/font&gt;&lt;/span&gt;&lt;/div&gt;&lt;div style=&quot;line-height: 120%; white-space: pre;&quot;&gt;&lt;span style=&quot;background-color: rgb(255, 255, 255);&quot;&gt;(Serial Display/Print_To_Dispaly)&lt;/span&gt;&lt;/div&gt;&lt;p&gt;&lt;/p&gt;" style="shape=process;whiteSpace=wrap;html=1;backgroundOutline=1;" vertex="1" parent="1">
          <mxGeometry x="814" y="2559" width="302.5" height="60" as="geometry" />
        </mxCell>
        <mxCell id="ry9LyBkneQpmExAJehDU-599" style="edgeStyle=orthogonalEdgeStyle;rounded=0;orthogonalLoop=1;jettySize=auto;html=1;entryX=0.5;entryY=0;entryDx=0;entryDy=0;" edge="1" parent="1" source="ry9LyBkneQpmExAJehDU-567" target="ry9LyBkneQpmExAJehDU-429">
          <mxGeometry relative="1" as="geometry" />
        </mxCell>
        <mxCell id="ry9LyBkneQpmExAJehDU-567" value="&lt;p style=&quot;line-height: 120%;&quot;&gt;&lt;/p&gt;&lt;div style=&quot;line-height: 120%; white-space: pre;&quot;&gt;&lt;span style=&quot;background-color: rgb(255, 255, 255);&quot;&gt;&lt;font style=&quot;font-size: 12px;&quot; face=&quot;Helvetica&quot;&gt;PrintToDisplay(&lt;span style=&quot;&quot;&gt;&quot;page33.t5.txt=&lt;/span&gt;&lt;span style=&quot;&quot;&gt;\&quot;&lt;/span&gt;&lt;/font&gt;&lt;/span&gt;&lt;span style=&quot;background-color: rgb(255, 255, 255);&quot;&gt;Yes&lt;/span&gt;&lt;span style=&quot;background-color: rgb(255, 255, 255);&quot;&gt;&lt;font style=&quot;font-size: 12px;&quot; face=&quot;Helvetica&quot;&gt;&lt;span style=&quot;&quot;&gt;\&quot;&lt;/span&gt;&lt;span style=&quot;&quot;&gt;&quot;)&lt;/span&gt;&lt;/font&gt;&lt;/span&gt;&lt;/div&gt;&lt;div style=&quot;line-height: 120%; white-space: pre;&quot;&gt;&lt;span style=&quot;background-color: rgb(255, 255, 255);&quot;&gt;(Serial Display/Print_To_Dispaly)&lt;/span&gt;&lt;/div&gt;&lt;p&gt;&lt;/p&gt;" style="shape=process;whiteSpace=wrap;html=1;backgroundOutline=1;" vertex="1" parent="1">
          <mxGeometry x="814" y="2750" width="302.5" height="60" as="geometry" />
        </mxCell>
        <mxCell id="ry9LyBkneQpmExAJehDU-598" style="edgeStyle=orthogonalEdgeStyle;rounded=0;orthogonalLoop=1;jettySize=auto;html=1;entryX=0.5;entryY=0;entryDx=0;entryDy=0;" edge="1" parent="1" source="ry9LyBkneQpmExAJehDU-569" target="ry9LyBkneQpmExAJehDU-433">
          <mxGeometry relative="1" as="geometry" />
        </mxCell>
        <mxCell id="ry9LyBkneQpmExAJehDU-569" value="&lt;p style=&quot;line-height: 120%;&quot;&gt;&lt;/p&gt;&lt;div style=&quot;line-height: 120%; white-space: pre;&quot;&gt;&lt;span style=&quot;background-color: rgb(255, 255, 255);&quot;&gt;&lt;font style=&quot;font-size: 12px;&quot; face=&quot;Helvetica&quot;&gt;PrintToDisplay(&lt;span style=&quot;&quot;&gt;&quot;page34.t5.txt=&lt;/span&gt;&lt;span style=&quot;&quot;&gt;\&quot;&lt;/span&gt;&lt;/font&gt;&lt;/span&gt;&lt;span style=&quot;background-color: rgb(255, 255, 255);&quot;&gt;Yes&lt;/span&gt;&lt;span style=&quot;background-color: rgb(255, 255, 255);&quot;&gt;&lt;font style=&quot;font-size: 12px;&quot; face=&quot;Helvetica&quot;&gt;&lt;span style=&quot;&quot;&gt;\&quot;&lt;/span&gt;&lt;span style=&quot;&quot;&gt;&quot;)&lt;/span&gt;&lt;/font&gt;&lt;/span&gt;&lt;/div&gt;&lt;div style=&quot;line-height: 120%; white-space: pre;&quot;&gt;&lt;span style=&quot;background-color: rgb(255, 255, 255);&quot;&gt;(Serial Display/Print_To_Dispaly)&lt;/span&gt;&lt;/div&gt;&lt;p&gt;&lt;/p&gt;" style="shape=process;whiteSpace=wrap;html=1;backgroundOutline=1;" vertex="1" parent="1">
          <mxGeometry x="814.5" y="2940" width="302.5" height="60" as="geometry" />
        </mxCell>
        <mxCell id="ry9LyBkneQpmExAJehDU-597" style="edgeStyle=orthogonalEdgeStyle;rounded=0;orthogonalLoop=1;jettySize=auto;html=1;entryX=0.5;entryY=0;entryDx=0;entryDy=0;" edge="1" parent="1" source="ry9LyBkneQpmExAJehDU-571" target="ry9LyBkneQpmExAJehDU-437">
          <mxGeometry relative="1" as="geometry" />
        </mxCell>
        <mxCell id="ry9LyBkneQpmExAJehDU-571" value="&lt;p style=&quot;line-height: 120%;&quot;&gt;&lt;/p&gt;&lt;div style=&quot;line-height: 120%; white-space: pre;&quot;&gt;&lt;span style=&quot;background-color: rgb(255, 255, 255);&quot;&gt;&lt;font style=&quot;font-size: 12px;&quot; face=&quot;Helvetica&quot;&gt;PrintToDisplay(&lt;span style=&quot;&quot;&gt;&quot;page35.t5.txt=&lt;/span&gt;&lt;span style=&quot;&quot;&gt;\&quot;&lt;/span&gt;&lt;/font&gt;&lt;/span&gt;&lt;span style=&quot;background-color: rgb(255, 255, 255);&quot;&gt;Yes&lt;/span&gt;&lt;span style=&quot;background-color: rgb(255, 255, 255);&quot;&gt;&lt;font style=&quot;font-size: 12px;&quot; face=&quot;Helvetica&quot;&gt;&lt;span style=&quot;&quot;&gt;\&quot;&lt;/span&gt;&lt;span style=&quot;&quot;&gt;&quot;)&lt;/span&gt;&lt;/font&gt;&lt;/span&gt;&lt;/div&gt;&lt;div style=&quot;line-height: 120%; white-space: pre;&quot;&gt;&lt;span style=&quot;background-color: rgb(255, 255, 255);&quot;&gt;(Serial Display/Print_To_Dispaly)&lt;/span&gt;&lt;/div&gt;&lt;p&gt;&lt;/p&gt;" style="shape=process;whiteSpace=wrap;html=1;backgroundOutline=1;" vertex="1" parent="1">
          <mxGeometry x="814" y="3140" width="302.5" height="60" as="geometry" />
        </mxCell>
        <mxCell id="ry9LyBkneQpmExAJehDU-596" style="edgeStyle=orthogonalEdgeStyle;rounded=0;orthogonalLoop=1;jettySize=auto;html=1;entryX=0.5;entryY=0;entryDx=0;entryDy=0;" edge="1" parent="1" source="ry9LyBkneQpmExAJehDU-573" target="ry9LyBkneQpmExAJehDU-441">
          <mxGeometry relative="1" as="geometry" />
        </mxCell>
        <mxCell id="ry9LyBkneQpmExAJehDU-573" value="&lt;p style=&quot;line-height: 120%;&quot;&gt;&lt;/p&gt;&lt;div style=&quot;line-height: 120%; white-space: pre;&quot;&gt;&lt;span style=&quot;background-color: rgb(255, 255, 255);&quot;&gt;&lt;font style=&quot;font-size: 12px;&quot; face=&quot;Helvetica&quot;&gt;PrintToDisplay(&lt;span style=&quot;&quot;&gt;&quot;page4.t5.txt=&lt;/span&gt;&lt;span style=&quot;&quot;&gt;\&quot;&lt;/span&gt;&lt;/font&gt;&lt;/span&gt;&lt;span style=&quot;background-color: rgb(255, 255, 255);&quot;&gt;Yes&lt;/span&gt;&lt;span style=&quot;background-color: rgb(255, 255, 255);&quot;&gt;&lt;font style=&quot;font-size: 12px;&quot; face=&quot;Helvetica&quot;&gt;&lt;span style=&quot;&quot;&gt;\&quot;&lt;/span&gt;&lt;span style=&quot;&quot;&gt;&quot;)&lt;/span&gt;&lt;/font&gt;&lt;/span&gt;&lt;/div&gt;&lt;div style=&quot;line-height: 120%; white-space: pre;&quot;&gt;&lt;span style=&quot;background-color: rgb(255, 255, 255);&quot;&gt;(Serial Display/Print_To_Dispaly)&lt;/span&gt;&lt;/div&gt;&lt;p&gt;&lt;/p&gt;" style="shape=process;whiteSpace=wrap;html=1;backgroundOutline=1;" vertex="1" parent="1">
          <mxGeometry x="814.5" y="3332" width="302.5" height="60" as="geometry" />
        </mxCell>
        <mxCell id="ry9LyBkneQpmExAJehDU-595" style="edgeStyle=orthogonalEdgeStyle;rounded=0;orthogonalLoop=1;jettySize=auto;html=1;entryX=0.5;entryY=0;entryDx=0;entryDy=0;" edge="1" parent="1" source="ry9LyBkneQpmExAJehDU-575" target="ry9LyBkneQpmExAJehDU-445">
          <mxGeometry relative="1" as="geometry" />
        </mxCell>
        <mxCell id="ry9LyBkneQpmExAJehDU-575" value="&lt;p style=&quot;line-height: 120%;&quot;&gt;&lt;/p&gt;&lt;div style=&quot;line-height: 120%; white-space: pre;&quot;&gt;&lt;span style=&quot;background-color: rgb(255, 255, 255);&quot;&gt;&lt;font style=&quot;font-size: 12px;&quot; face=&quot;Helvetica&quot;&gt;PrintToDisplay(&lt;span style=&quot;&quot;&gt;&quot;page41.t5.txt=&lt;/span&gt;&lt;span style=&quot;&quot;&gt;\&quot;&lt;/span&gt;&lt;/font&gt;&lt;/span&gt;&lt;span style=&quot;background-color: rgb(255, 255, 255);&quot;&gt;Yes&lt;/span&gt;&lt;span style=&quot;background-color: rgb(255, 255, 255);&quot;&gt;&lt;font style=&quot;font-size: 12px;&quot; face=&quot;Helvetica&quot;&gt;&lt;span style=&quot;&quot;&gt;\&quot;&lt;/span&gt;&lt;span style=&quot;&quot;&gt;&quot;)&lt;/span&gt;&lt;/font&gt;&lt;/span&gt;&lt;/div&gt;&lt;div style=&quot;line-height: 120%; white-space: pre;&quot;&gt;&lt;span style=&quot;background-color: rgb(255, 255, 255);&quot;&gt;(Serial Display/Print_To_Dispaly)&lt;/span&gt;&lt;/div&gt;&lt;p&gt;&lt;/p&gt;" style="shape=process;whiteSpace=wrap;html=1;backgroundOutline=1;" vertex="1" parent="1">
          <mxGeometry x="814.5" y="3522" width="302.5" height="60" as="geometry" />
        </mxCell>
        <mxCell id="ry9LyBkneQpmExAJehDU-594" style="edgeStyle=orthogonalEdgeStyle;rounded=0;orthogonalLoop=1;jettySize=auto;html=1;entryX=0.5;entryY=0;entryDx=0;entryDy=0;" edge="1" parent="1" source="ry9LyBkneQpmExAJehDU-577" target="ry9LyBkneQpmExAJehDU-449">
          <mxGeometry relative="1" as="geometry" />
        </mxCell>
        <mxCell id="ry9LyBkneQpmExAJehDU-577" value="&lt;p style=&quot;line-height: 120%;&quot;&gt;&lt;/p&gt;&lt;div style=&quot;line-height: 120%; white-space: pre;&quot;&gt;&lt;span style=&quot;background-color: rgb(255, 255, 255);&quot;&gt;&lt;font style=&quot;font-size: 12px;&quot; face=&quot;Helvetica&quot;&gt;PrintToDisplay(&lt;span style=&quot;&quot;&gt;&quot;page42.t5.txt=&lt;/span&gt;&lt;span style=&quot;&quot;&gt;\&quot;&lt;/span&gt;&lt;/font&gt;&lt;/span&gt;&lt;span style=&quot;background-color: rgb(255, 255, 255);&quot;&gt;Yes&lt;/span&gt;&lt;span style=&quot;background-color: rgb(255, 255, 255);&quot;&gt;&lt;font style=&quot;font-size: 12px;&quot; face=&quot;Helvetica&quot;&gt;&lt;span style=&quot;&quot;&gt;\&quot;&lt;/span&gt;&lt;span style=&quot;&quot;&gt;&quot;)&lt;/span&gt;&lt;/font&gt;&lt;/span&gt;&lt;/div&gt;&lt;div style=&quot;line-height: 120%; white-space: pre;&quot;&gt;&lt;span style=&quot;background-color: rgb(255, 255, 255);&quot;&gt;(Serial Display/Print_To_Dispaly)&lt;/span&gt;&lt;/div&gt;&lt;p&gt;&lt;/p&gt;" style="shape=process;whiteSpace=wrap;html=1;backgroundOutline=1;" vertex="1" parent="1">
          <mxGeometry x="814.5" y="3712" width="302.5" height="60" as="geometry" />
        </mxCell>
        <mxCell id="ry9LyBkneQpmExAJehDU-609" style="edgeStyle=orthogonalEdgeStyle;rounded=0;orthogonalLoop=1;jettySize=auto;html=1;entryX=0.5;entryY=0;entryDx=0;entryDy=0;exitX=0.5;exitY=1;exitDx=0;exitDy=0;" edge="1" parent="1" source="ry9LyBkneQpmExAJehDU-578" target="ry9LyBkneQpmExAJehDU-117">
          <mxGeometry relative="1" as="geometry">
            <Array as="points">
              <mxPoint x="966" y="4010" />
              <mxPoint x="541" y="4010" />
            </Array>
          </mxGeometry>
        </mxCell>
        <mxCell id="ry9LyBkneQpmExAJehDU-578" value="&lt;p style=&quot;line-height: 120%;&quot;&gt;&lt;/p&gt;&lt;div style=&quot;line-height: 120%; white-space: pre;&quot;&gt;&lt;span style=&quot;background-color: rgb(255, 255, 255);&quot;&gt;&lt;font style=&quot;font-size: 12px;&quot; face=&quot;Helvetica&quot;&gt;PrintToDisplay(&lt;span style=&quot;&quot;&gt;&quot;page43.t5.txt=&lt;/span&gt;&lt;span style=&quot;&quot;&gt;\&quot;&lt;/span&gt;&lt;/font&gt;&lt;/span&gt;&lt;span style=&quot;background-color: rgb(255, 255, 255);&quot;&gt;Yes&lt;/span&gt;&lt;span style=&quot;background-color: rgb(255, 255, 255);&quot;&gt;&lt;font style=&quot;font-size: 12px;&quot; face=&quot;Helvetica&quot;&gt;&lt;span style=&quot;&quot;&gt;\&quot;&lt;/span&gt;&lt;span style=&quot;&quot;&gt;&quot;)&lt;/span&gt;&lt;/font&gt;&lt;/span&gt;&lt;/div&gt;&lt;div style=&quot;line-height: 120%; white-space: pre;&quot;&gt;&lt;span style=&quot;background-color: rgb(255, 255, 255);&quot;&gt;(Serial Display/Print_To_Dispaly)&lt;/span&gt;&lt;/div&gt;&lt;p&gt;&lt;/p&gt;" style="shape=process;whiteSpace=wrap;html=1;backgroundOutline=1;" vertex="1" parent="1">
          <mxGeometry x="814.5" y="3917" width="302.5" height="60" as="geometry" />
        </mxCell>
      </root>
    </mxGraphModel>
  </diagram>
</mxfile>
